<?xml version="1.0" standalone="no"?>
<!DOCTYPE svg PUBLIC "-//W3C//DTD SVG 20010904//EN"
 "http://www.w3.org/TR/2001/REC-SVG-20010904/DTD/svg10.dtd">
<svg version="1.0" xmlns="http://www.w3.org/2000/svg"
 width="1400.000000pt" height="1300.000000pt" viewBox="0 0 1400.000000 1300.000000"
 preserveAspectRatio="xMidYMid meet">

<g transform="translate(0.000000,1300.000000) scale(0.100000,-0.100000)"
fill="#000000" stroke="none">
<path d="M7376 12252 c-65 -3 -86 -17 -86 -56 0 -14 -4 -26 -10 -26 -5 0 -10
-9 -10 -20 0 -11 -4 -20 -10 -20 -5 0 -10 -13 -10 -30 0 -16 -4 -30 -10 -30
-5 0 -10 -9 -10 -20 0 -11 -4 -20 -10 -20 -5 0 -10 -13 -10 -30 0 -16 -4 -30
-10 -30 -5 0 -10 -18 -10 -40 0 -22 -4 -40 -10 -40 -5 0 -10 -9 -10 -20 0 -11
-4 -20 -10 -20 -5 0 -10 -9 -10 -20 0 -11 -4 -20 -10 -20 -5 0 -10 -13 -10
-30 0 -16 -4 -30 -10 -30 -5 0 -10 -13 -10 -30 0 -16 -4 -30 -10 -30 -5 0 -10
-9 -10 -20 0 -11 -4 -20 -10 -20 -5 0 -10 -13 -10 -30 0 -16 -4 -30 -10 -30
-5 0 -10 -11 -10 -25 0 -14 -4 -25 -10 -25 -5 0 -10 -11 -10 -25 0 -14 -4 -25
-10 -25 -5 0 -10 -13 -10 -30 0 -16 -4 -30 -10 -30 -5 0 -10 -13 -10 -30 0
-16 -4 -30 -10 -30 -5 0 -10 -9 -10 -20 0 -11 -4 -20 -10 -20 -5 0 -10 -13
-10 -30 0 -16 -4 -30 -10 -30 -5 0 -10 -13 -10 -30 0 -16 -4 -30 -10 -30 -5 0
-10 -12 -10 -26 0 -38 -19 -51 -85 -58 -75 -7 -183 -23 -255 -36 -30 -5 -80
-12 -110 -16 -30 -4 -60 -10 -65 -15 -6 -4 -30 -9 -54 -10 -23 -2 -45 -7 -47
-11 -3 -4 -16 -8 -29 -8 -13 0 -27 -4 -30 -10 -3 -5 -16 -10 -27 -10 -19 0
-49 -8 -108 -28 -33 -11 -44 -10 -76 11 -19 12 -34 25 -34 28 0 7 -70 80 -70
73 0 -1 -11 8 -25 22 -14 14 -25 29 -25 34 0 5 -11 20 -25 34 -14 14 -25 23
-25 20 0 -3 -7 1 -15 10 -8 8 -15 17 -15 20 0 3 -40 46 -90 95 -49 50 -90 95
-90 99 0 14 -388 402 -402 402 -7 0 -28 -9 -46 -20 -18 -11 -41 -20 -50 -20
-20 0 -135 -59 -140 -72 -2 -4 -12 -8 -23 -8 -10 0 -19 -4 -19 -8 0 -10 -85
-52 -105 -52 -8 0 -15 -4 -15 -10 0 -5 -7 -10 -15 -10 -25 0 -173 -77 -200
-105 -22 -21 -26 -32 -20 -53 4 -15 9 -49 12 -77 3 -27 9 -54 14 -60 5 -5 9
-27 9 -50 0 -23 4 -45 9 -50 5 -6 12 -35 15 -65 14 -136 18 -166 27 -175 5 -5
9 -28 9 -51 0 -24 5 -46 10 -49 6 -3 10 -30 10 -60 0 -30 4 -56 8 -59 5 -3 9
-28 11 -57 1 -29 6 -60 12 -70 5 -10 9 -33 9 -51 0 -19 4 -38 9 -43 5 -6 12
-35 15 -65 3 -30 8 -75 11 -100 6 -44 5 -46 -45 -97 -29 -29 -56 -53 -60 -53
-4 0 -23 -14 -41 -30 -19 -17 -47 -40 -62 -53 -16 -12 -61 -51 -99 -87 -39
-36 -88 -81 -110 -100 -21 -19 -69 -65 -107 -102 l-68 -66 -69 19 c-38 11
-118 33 -179 49 -60 16 -164 47 -230 68 -66 22 -142 46 -170 55 -86 26 -246
75 -349 107 -128 39 -154 39 -192 -2 -49 -54 -146 -195 -241 -351 -20 -34 -46
-71 -56 -82 -24 -26 -57 -90 -57 -111 0 -25 36 -78 96 -140 30 -31 54 -60 54
-64 0 -4 12 -22 28 -38 15 -17 38 -45 52 -63 14 -18 34 -42 45 -53 11 -12 32
-37 45 -56 14 -19 42 -53 62 -75 21 -22 38 -43 38 -47 0 -5 18 -27 40 -50 22
-24 40 -47 40 -51 0 -5 13 -21 28 -35 15 -15 39 -43 52 -62 14 -19 42 -53 62
-75 21 -22 38 -44 38 -48 0 -5 14 -22 30 -37 17 -15 30 -36 30 -47 0 -18 -17
-67 -61 -175 -42 -103 -118 -334 -144 -438 -46 -185 -44 -180 -65 -180 -10 0
-22 -4 -25 -10 -3 -5 -24 -10 -46 -10 -21 0 -39 -4 -39 -10 0 -5 -13 -10 -30
-10 -16 0 -30 -4 -30 -8 0 -5 -16 -9 -36 -10 -20 -1 -41 -5 -48 -10 -6 -4 -24
-9 -41 -11 -16 -2 -32 -6 -35 -10 -3 -4 -20 -8 -39 -9 -18 -1 -41 -7 -51 -12
-10 -6 -30 -10 -44 -10 -14 0 -27 -4 -30 -8 -2 -4 -19 -9 -38 -10 -18 -2 -37
-7 -42 -12 -6 -6 -25 -10 -43 -10 -18 0 -33 -4 -33 -8 0 -5 -21 -10 -47 -11
-27 -1 -49 -6 -51 -11 -2 -6 -21 -10 -42 -10 -21 0 -42 -4 -45 -10 -3 -5 -17
-10 -30 -10 -13 0 -27 -4 -30 -10 -3 -5 -22 -10 -41 -10 -19 0 -34 -4 -34 -9
0 -4 -30 -9 -67 -10 -87 -2 -119 -16 -128 -56 -3 -16 -8 -82 -11 -145 -3 -63
-12 -203 -19 -310 -14 -203 -12 -250 11 -250 8 0 14 -4 14 -10 0 -5 14 -10 30
-10 17 0 30 -4 30 -10 0 -5 14 -10 30 -10 17 0 30 -4 30 -10 0 -5 14 -10 30
-10 17 0 30 -4 30 -10 0 -5 9 -10 20 -10 11 0 20 -4 20 -10 0 -5 11 -10 24
-10 14 0 28 -4 31 -10 3 -5 15 -10 26 -10 10 0 19 -4 19 -10 0 -5 14 -10 30
-10 17 0 30 -4 30 -10 0 -5 14 -10 30 -10 17 0 30 -4 30 -10 0 -5 14 -10 30
-10 17 0 30 -4 30 -10 0 -5 9 -10 20 -10 11 0 20 -4 20 -10 0 -5 11 -10 25
-10 14 0 25 -4 25 -10 0 -5 16 -10 35 -10 19 0 35 -4 35 -10 0 -5 14 -10 30
-10 17 0 30 -4 30 -10 0 -5 9 -10 20 -10 11 0 20 -4 20 -10 0 -5 14 -10 30
-10 17 0 30 -4 30 -10 0 -5 9 -10 20 -10 11 0 20 -4 20 -10 0 -5 14 -10 30
-10 17 0 30 -4 30 -10 0 -5 9 -10 20 -10 11 0 20 -4 20 -10 0 -5 18 -10 40
-10 22 0 40 -3 40 -8 0 -4 10 -12 22 -17 23 -11 25 -18 38 -110 4 -33 10 -67
14 -75 3 -8 8 -35 10 -60 3 -25 8 -57 11 -72 5 -25 10 -54 19 -110 1 -10 5
-20 8 -24 4 -3 4 -11 2 -18 -3 -7 1 -26 7 -42 7 -16 13 -36 14 -44 0 -8 5 -26
10 -40 5 -14 8 -33 6 -42 -1 -10 2 -18 6 -18 5 0 9 -10 11 -22 1 -13 10 -50
21 -82 14 -43 17 -66 10 -83 -10 -27 -33 -53 -46 -53 -5 0 -15 -9 -23 -20 -8
-11 -18 -20 -22 -20 -4 0 -95 -87 -202 -192 -106 -106 -221 -218 -254 -248
-174 -157 -302 -290 -302 -312 0 -13 38 -100 85 -193 47 -94 85 -175 85 -182
0 -6 6 -18 12 -25 7 -7 37 -61 67 -121 61 -122 54 -119 183 -92 40 9 98 18
128 21 30 3 71 10 90 14 35 9 188 37 245 46 17 2 43 7 60 9 16 3 52 8 80 11
27 4 58 10 67 15 9 5 29 9 44 9 32 0 110 14 236 41 97 22 123 17 151 -29 9
-15 37 -48 62 -74 25 -27 45 -51 45 -55 0 -5 18 -26 40 -48 21 -22 39 -44 40
-48 0 -10 -10 0 167 -179 l141 -143 -10 -45 c-5 -25 -12 -57 -15 -73 -3 -15
-9 -27 -14 -27 -5 0 -9 -13 -9 -30 0 -16 -4 -30 -10 -30 -5 0 -10 -13 -10 -30
0 -16 -4 -30 -10 -30 -5 0 -10 -13 -10 -30 0 -16 -4 -30 -10 -30 -5 0 -10 -15
-10 -34 0 -19 -4 -38 -10 -41 -5 -3 -10 -19 -10 -36 0 -16 -4 -29 -9 -29 -5 0
-11 -17 -14 -38 -11 -71 -19 -102 -28 -102 -5 0 -9 -13 -9 -30 0 -16 -4 -30
-10 -30 -5 0 -10 -15 -10 -34 0 -19 -4 -38 -10 -41 -5 -3 -10 -19 -10 -35 0
-16 -4 -32 -10 -35 -6 -3 -10 -17 -10 -30 0 -13 -4 -27 -10 -30 -6 -3 -10 -16
-10 -28 0 -13 -9 -40 -20 -62 -11 -22 -20 -49 -20 -60 0 -12 -4 -25 -10 -31
-15 -15 -15 -111 0 -129 18 -22 98 -75 113 -75 7 0 19 -9 27 -20 8 -11 20 -20
27 -20 7 0 26 -13 41 -30 16 -16 33 -30 39 -30 5 0 18 -8 29 -18 25 -22 74
-52 97 -59 9 -3 17 -9 17 -14 0 -5 8 -9 18 -9 9 0 23 -9 30 -20 7 -11 20 -20
30 -20 10 0 24 -9 32 -20 8 -11 22 -20 31 -20 10 0 19 -5 21 -11 3 -9 11 -8
28 1 14 7 27 16 30 19 3 4 21 18 40 31 19 13 40 29 46 35 6 5 22 17 34 25 13
8 32 24 44 35 18 17 108 92 141 117 6 5 22 18 36 31 14 12 38 31 53 42 15 11
42 32 59 48 18 15 45 37 60 50 53 42 131 107 176 147 16 14 44 39 62 55 19 17
63 50 99 74 51 35 67 41 80 32 63 -47 99 -62 165 -73 11 -2 26 -9 34 -16 8 -8
22 -11 32 -9 11 3 19 2 19 -1 0 -12 78 -45 89 -38 6 4 11 3 11 -1 0 -10 184
-73 219 -76 11 -1 21 -5 21 -9 0 -4 3 -7 8 -6 4 2 44 -6 90 -16 79 -19 82 -20
82 -48 0 -15 5 -28 10 -28 6 0 10 -18 10 -39 0 -22 5 -43 10 -46 6 -3 10 -21
10 -40 0 -19 5 -37 10 -40 6 -3 10 -22 10 -41 0 -19 5 -34 10 -34 6 0 10 -18
10 -40 0 -22 5 -40 10 -40 6 0 10 -18 10 -40 0 -22 3 -40 8 -40 4 0 8 -17 10
-37 1 -20 6 -39 10 -43 4 -3 9 -21 11 -40 1 -19 7 -36 12 -38 5 -2 9 -21 9
-43 0 -21 5 -39 10 -39 6 0 10 -18 10 -40 0 -22 3 -40 8 -40 4 0 9 -26 10 -57
2 -32 7 -60 11 -63 4 -3 8 -25 10 -50 1 -25 7 -46 12 -48 5 -2 9 -21 9 -43 0
-21 5 -39 10 -39 6 0 10 -13 10 -30 0 -16 5 -30 10 -30 6 0 10 -6 10 -13 0
-24 37 -34 144 -36 59 -1 118 -6 130 -10 11 -4 84 -9 161 -10 77 -2 144 -6
150 -9 5 -4 33 -7 60 -7 38 0 55 5 73 22 12 12 22 29 22 38 0 8 5 15 10 15 6
0 10 11 10 25 0 14 5 25 10 25 6 0 10 11 10 25 0 14 5 25 10 25 6 0 10 14 10
30 0 17 5 30 10 30 6 0 10 14 10 30 0 17 5 30 10 30 6 0 10 16 10 35 0 19 5
35 10 35 6 0 10 11 10 25 0 14 5 25 10 25 6 0 10 9 10 20 0 11 5 20 10 20 6 0
10 9 10 20 0 11 5 20 10 20 6 0 10 14 10 30 0 17 5 30 10 30 6 0 10 14 10 30
0 17 5 30 10 30 6 0 10 14 10 30 0 17 5 30 10 30 6 0 10 11 10 25 0 14 5 25
10 25 6 0 10 11 10 25 0 14 5 25 10 25 6 0 10 11 10 25 0 14 5 25 10 25 6 0
10 9 10 19 0 11 4 23 10 26 6 3 10 19 10 36 0 16 5 29 10 29 6 0 10 14 10 30
0 17 5 30 10 30 6 0 10 11 10 25 0 14 5 25 10 25 6 0 10 9 10 20 0 11 5 20 10
20 6 0 10 9 10 20 0 23 8 27 60 34 19 2 35 5 35 6 0 1 27 3 60 6 67 5 90 9
155 24 25 6 95 20 155 30 61 10 111 19 113 20 1 2 5 3 10 4 101 21 139 30 148
37 5 5 27 10 47 13 20 2 41 7 47 11 13 8 70 -32 70 -51 0 -8 5 -14 10 -14 6 0
10 -7 10 -16 0 -8 4 -13 8 -10 5 3 15 -6 22 -19 7 -14 16 -25 20 -25 10 0 50
-36 50 -44 0 -4 23 -29 50 -56 28 -27 50 -53 50 -59 0 -5 9 -13 20 -16 11 -3
20 -10 20 -14 0 -13 67 -81 74 -74 3 3 6 2 6 -4 0 -12 150 -168 150 -156 0 5
4 3 8 -3 4 -7 44 -52 89 -100 45 -49 99 -108 120 -132 22 -24 51 -45 66 -48
33 -5 101 11 119 29 13 13 270 142 336 169 17 7 32 16 32 20 0 5 7 8 15 8 8 0
44 14 80 31 60 29 65 34 65 63 0 18 -4 36 -9 42 -10 10 -18 63 -27 179 -3 39
-10 74 -15 79 -5 6 -9 25 -9 42 0 18 -4 36 -10 39 -5 3 -10 30 -10 60 0 30 -4
56 -8 59 -5 3 -9 29 -11 58 -1 29 -6 57 -11 63 -4 5 -10 35 -13 65 -7 68 -17
122 -27 135 -4 6 -8 41 -9 80 -2 38 -6 74 -10 80 -4 5 -8 28 -10 50 -1 22 -7
44 -12 49 -28 29 5 117 53 142 17 9 36 20 42 25 6 5 21 17 32 27 12 9 40 33
63 52 23 19 52 43 64 53 35 29 114 98 166 147 27 25 59 54 72 66 13 11 41 39
61 62 l38 41 2 550 3 551 -372 0 c-319 0 -378 -2 -413 -16 -22 -9 -40 -20 -40
-25 0 -12 -427 -439 -438 -439 -5 0 -23 -14 -40 -30 -18 -17 -36 -30 -40 -30
-5 0 -22 -12 -38 -27 -16 -16 -42 -34 -57 -42 -15 -8 -27 -18 -27 -23 0 -4 -6
-8 -13 -8 -7 0 -23 -9 -35 -20 -12 -11 -28 -20 -36 -20 -8 0 -16 -3 -18 -7 -1
-5 -24 -19 -50 -32 -27 -13 -48 -28 -48 -33 0 -4 -9 -8 -19 -8 -11 0 -21 -3
-23 -8 -4 -9 -130 -73 -142 -71 -5 0 -12 -3 -15 -8 -10 -13 -49 -33 -66 -33
-8 0 -15 -4 -15 -10 0 -5 -7 -10 -15 -10 -9 0 -35 -9 -57 -20 -23 -11 -48 -20
-55 -20 -7 0 -28 -9 -48 -20 -20 -11 -44 -20 -55 -20 -10 0 -21 -4 -24 -9 -3
-4 -27 -14 -53 -20 -27 -7 -55 -16 -63 -20 -8 -4 -40 -13 -70 -20 -30 -7 -64
-16 -75 -21 -33 -13 -124 -30 -165 -30 -21 0 -50 -4 -63 -9 -13 -5 -46 -10
-73 -12 -27 -1 -55 -7 -63 -13 -21 -17 -686 -15 -703 2 -7 7 -38 12 -73 12
-34 0 -65 4 -70 9 -6 5 -35 12 -65 15 -110 11 -150 18 -150 27 0 5 -13 9 -29
9 -17 0 -33 5 -36 10 -3 6 -22 10 -41 10 -19 0 -34 5 -34 10 0 6 -13 10 -30
10 -16 0 -30 5 -30 10 0 6 -13 10 -30 10 -16 0 -30 5 -30 10 0 6 -13 10 -30
10 -16 0 -30 5 -30 10 0 6 -9 10 -20 10 -11 0 -20 5 -20 10 0 6 -13 10 -30 10
-16 0 -30 5 -30 10 0 6 -9 10 -20 10 -11 0 -20 5 -20 10 0 6 -9 10 -20 10 -11
0 -20 5 -20 10 0 6 -9 10 -20 10 -11 0 -20 5 -20 10 0 6 -9 10 -20 10 -11 0
-20 5 -20 10 0 6 -9 10 -20 10 -11 0 -20 5 -20 10 0 6 -9 10 -20 10 -11 0 -20
5 -20 10 0 6 -9 10 -20 10 -11 0 -20 5 -20 10 0 6 -9 10 -20 10 -11 0 -20 5
-20 10 0 6 -9 10 -20 10 -11 0 -20 5 -20 10 0 6 -8 10 -18 10 -10 0 -24 9 -32
20 -8 11 -21 20 -30 20 -9 0 -22 9 -30 20 -8 11 -21 20 -30 20 -9 0 -22 9 -30
20 -8 11 -22 20 -32 20 -10 0 -18 5 -18 10 0 6 -9 10 -20 10 -11 0 -20 4 -20
8 0 5 -12 15 -27 23 -16 8 -45 31 -65 51 -20 21 -41 38 -48 38 -6 0 -80 69
-166 152 -85 84 -159 155 -164 156 -6 2 -10 8 -10 13 0 5 -20 30 -45 55 -25
24 -45 49 -45 54 0 5 -11 20 -25 34 -14 14 -25 30 -25 37 0 6 -13 24 -30 39
-16 15 -30 32 -30 38 0 5 -13 23 -30 40 -16 18 -30 36 -30 40 0 5 -8 17 -18
28 -9 10 -28 40 -41 67 -13 26 -28 47 -33 47 -4 0 -8 9 -8 19 0 11 -3 21 -7
23 -5 2 -19 24 -32 51 -13 26 -28 47 -33 47 -4 0 -8 9 -8 20 0 11 -3 20 -7 20
-9 0 -33 49 -33 67 0 7 -4 13 -10 13 -5 0 -10 8 -10 19 0 10 -18 53 -40 96
-22 43 -40 85 -40 94 0 10 -4 21 -8 27 -5 5 -14 29 -21 54 -7 25 -17 54 -22
65 -10 23 -39 128 -46 168 -3 15 -9 27 -14 27 -5 0 -9 10 -9 22 0 28 -19 134
-31 174 -5 18 -11 51 -13 75 -2 24 -6 51 -10 59 -18 51 -36 710 -18 710 5 0
10 33 11 73 1 39 6 76 12 82 5 5 9 27 9 50 0 23 4 45 9 50 5 6 12 30 15 55 10
84 18 120 27 120 5 0 9 18 9 40 0 22 5 40 10 40 6 0 10 18 10 40 0 22 5 40 10
40 6 0 10 14 10 30 0 17 5 30 10 30 6 0 10 14 10 30 0 17 5 30 10 30 6 0 10 9
10 20 0 11 5 20 10 20 6 0 10 14 10 30 0 17 5 30 10 30 6 0 10 9 10 20 0 11 5
20 10 20 6 0 10 14 10 30 0 17 5 30 10 30 6 0 10 9 10 20 0 11 5 20 10 20 6 0
10 9 10 20 0 11 5 20 10 20 6 0 10 9 10 20 0 11 5 20 10 20 6 0 10 9 10 20 0
11 5 20 10 20 6 0 10 9 10 20 0 11 5 20 10 20 6 0 10 9 10 20 0 11 5 20 10 20
6 0 10 9 10 20 0 11 5 20 10 20 6 0 10 8 10 18 0 10 9 24 20 32 11 8 20 22 20
32 0 10 5 18 10 18 6 0 10 7 10 16 0 8 13 29 30 47 16 18 30 37 30 42 0 6 9
17 20 25 11 8 20 21 20 28 0 8 14 27 30 42 17 15 30 33 30 39 0 6 14 25 30 43
16 17 30 35 30 39 0 5 27 36 60 71 33 34 60 66 60 70 0 11 167 178 178 178 4
0 31 23 60 50 29 28 57 50 63 50 6 0 24 14 39 30 15 17 32 30 37 30 4 0 22 12
38 28 17 15 42 33 58 41 15 8 27 18 27 23 0 4 6 8 13 8 7 0 22 8 33 18 10 9
31 23 47 31 15 8 27 18 27 23 0 4 6 8 13 8 7 0 22 8 33 18 26 23 424 222 446
222 9 0 20 5 23 10 3 6 16 10 29 10 12 0 26 4 31 8 6 5 30 14 55 21 25 7 53
17 62 22 10 5 26 9 36 9 10 0 22 4 27 8 9 8 95 30 137 36 10 1 21 5 24 9 4 4
21 7 39 7 17 0 35 4 41 10 5 5 31 11 57 12 26 2 47 6 47 11 0 4 25 7 56 7 30
0 63 4 73 10 10 5 48 10 85 12 36 1 66 6 66 11 0 16 587 -6 625 -23 19 -9 58
-15 160 -26 28 -3 54 -10 60 -15 5 -5 28 -9 52 -9 24 0 43 -4 43 -10 0 -5 18
-10 40 -10 22 0 40 -4 40 -10 0 -5 14 -10 30 -10 17 0 30 -4 30 -10 0 -5 14
-10 30 -10 17 0 30 -4 30 -10 0 -5 14 -10 30 -10 17 0 30 -4 30 -10 0 -5 14
-10 30 -10 17 0 30 -4 30 -8 0 -5 23 -15 50 -22 28 -7 50 -17 50 -22 0 -4 14
-8 30 -8 17 0 30 -4 30 -10 0 -5 9 -10 20 -10 11 0 20 -4 20 -10 0 -5 9 -10
20 -10 11 0 20 -4 20 -10 0 -5 9 -10 20 -10 11 0 20 -4 20 -10 0 -5 9 -10 20
-10 11 0 20 -4 20 -10 0 -5 9 -10 20 -10 11 0 20 -4 20 -10 0 -5 8 -10 18 -10
10 0 24 -9 32 -20 8 -11 22 -20 32 -20 10 0 18 -4 18 -10 0 -5 9 -10 20 -10
11 0 20 -4 20 -10 0 -5 8 -10 18 -10 10 0 24 -9 32 -20 8 -11 22 -20 32 -20
10 0 18 -4 18 -9 0 -5 9 -13 20 -16 11 -4 32 -17 45 -31 13 -13 30 -24 37 -24
8 0 20 -9 28 -20 8 -11 20 -20 27 -20 7 0 32 -18 55 -40 24 -22 46 -40 50 -40
5 0 31 -22 59 -50 28 -27 55 -50 60 -50 11 0 190 -179 205 -205 6 -10 19 -23
29 -29 10 -6 28 -19 39 -28 18 -17 54 -18 443 -18 332 0 423 3 423 13 0 6 0
232 1 500 l0 489 -90 93 c-83 85 -108 125 -81 125 6 0 10 18 10 40 0 22 5 40
10 40 6 0 10 15 10 34 0 19 5 38 10 41 6 3 10 19 10 36 0 16 5 29 10 29 6 0
10 14 10 30 0 17 5 30 10 30 6 0 10 14 10 30 0 17 5 30 10 30 6 0 10 15 10 34
0 19 5 38 10 41 6 3 10 19 10 36 0 16 5 29 10 29 6 0 10 18 10 40 0 22 5 40
10 40 6 0 10 15 10 34 0 19 5 38 10 41 6 3 10 19 10 36 0 16 5 29 10 29 6 0
10 14 10 30 0 17 5 30 10 30 6 0 10 14 10 30 0 17 5 30 10 30 6 0 10 10 10 22
0 23 16 81 31 110 5 10 9 27 9 38 0 11 5 29 10 40 6 11 15 29 20 40 19 38 2
80 -32 80 -8 0 -20 9 -28 20 -8 11 -21 20 -30 20 -9 0 -22 9 -30 20 -8 11 -22
20 -32 20 -10 0 -18 5 -18 10 0 6 -8 10 -18 10 -10 0 -24 9 -32 20 -8 11 -19
20 -25 20 -5 0 -23 11 -39 25 -16 13 -37 27 -47 30 -11 4 -19 11 -19 16 0 5
-7 9 -15 9 -8 0 -15 5 -15 10 0 6 -6 10 -13 10 -7 0 -19 9 -27 20 -8 11 -21
20 -30 20 -9 0 -22 9 -30 20 -8 11 -22 20 -32 20 -10 0 -18 4 -18 8 0 4 -15
12 -32 17 -43 13 -66 1 -142 -70 -32 -30 -62 -55 -65 -55 -4 0 -29 -20 -56
-45 -28 -25 -53 -45 -56 -45 -4 0 -22 -14 -40 -31 -19 -18 -50 -44 -69 -58
-19 -14 -48 -38 -64 -53 -16 -16 -32 -28 -37 -28 -4 0 -24 -16 -43 -35 -20
-19 -41 -35 -46 -35 -6 0 -10 -7 -10 -16 0 -8 -4 -13 -8 -10 -5 3 -30 -15 -57
-39 -26 -25 -51 -45 -54 -45 -3 0 -21 -14 -38 -31 -18 -16 -33 -27 -33 -24 0
3 -11 -4 -24 -17 -31 -31 -65 -59 -102 -85 -28 -20 -35 -21 -65 -10 -19 7 -41
20 -50 30 -9 9 -23 17 -32 17 -8 0 -17 4 -19 10 -1 5 -15 11 -30 12 -16 1 -28
6 -28 10 0 4 -13 8 -29 8 -16 0 -31 4 -33 9 -1 5 -14 11 -28 13 -14 1 -27 5
-30 8 -15 15 -53 30 -75 30 -14 0 -25 5 -25 10 0 6 -18 10 -39 10 -22 0 -41 4
-43 10 -1 5 -15 11 -30 12 -16 1 -28 6 -28 10 0 4 -13 8 -30 8 -16 0 -30 5
-30 10 0 6 -18 10 -39 10 -22 0 -43 5 -46 10 -3 6 -17 10 -31 10 -13 0 -24 4
-24 9 0 5 -9 11 -20 14 -12 3 -20 14 -20 26 0 12 -4 21 -10 21 -5 0 -10 18
-10 40 0 22 -4 40 -10 40 -5 0 -10 18 -10 40 0 22 -4 40 -10 40 -5 0 -10 14
-10 30 0 17 -4 30 -8 30 -5 0 -9 21 -11 48 -1 26 -6 49 -12 50 -5 2 -9 26 -9
53 0 27 -4 49 -8 49 -5 0 -9 21 -11 47 -1 26 -5 50 -9 53 -4 3 -9 21 -11 40
-1 19 -7 39 -12 45 -5 5 -9 24 -9 41 0 18 -4 35 -8 38 -4 2 -9 19 -10 38 -2
18 -7 37 -12 42 -6 6 -10 25 -10 43 0 18 -4 33 -8 33 -5 0 -10 21 -11 48 -1
26 -6 49 -11 50 -6 2 -10 17 -10 32 0 16 -4 32 -10 35 -5 3 -10 21 -10 40 0
19 -4 37 -10 40 -5 3 -10 15 -10 25 0 17 -12 19 -137 23 -76 3 -165 7 -198 10
-89 9 -252 13 -319 9z"/>
<path d="M7225 8868 c-154 -20 -328 -51 -485 -87 -32 -8 -239 -78 -338 -115
-52 -20 -225 -106 -232 -116 -3 -3 -34 -22 -70 -41 -36 -19 -75 -44 -88 -56
-13 -13 -27 -23 -31 -23 -4 0 -21 -11 -37 -25 -16 -14 -32 -25 -36 -25 -4 0
-40 -31 -80 -70 -40 -38 -77 -70 -81 -70 -9 0 -57 -46 -57 -54 0 -9 -30 -44
-87 -102 -29 -30 -53 -59 -53 -65 0 -6 -13 -24 -30 -39 -16 -15 -30 -34 -30
-42 0 -7 -9 -20 -20 -28 -11 -8 -20 -22 -20 -32 0 -10 -4 -18 -10 -18 -5 0
-10 -9 -10 -20 0 -11 -4 -20 -10 -20 -5 0 -10 -9 -10 -20 0 -11 -4 -20 -10
-20 -5 0 -10 -9 -10 -20 0 -11 -4 -20 -10 -20 -5 0 -10 -9 -10 -20 0 -11 -4
-20 -10 -20 -5 0 -10 -9 -10 -20 0 -11 -4 -20 -10 -20 -5 0 -10 -9 -10 -19 0
-11 -4 -23 -10 -26 -5 -3 -10 -17 -10 -31 0 -13 -4 -24 -10 -24 -5 0 -10 -13
-10 -30 0 -16 -4 -30 -10 -30 -5 0 -10 -13 -10 -30 0 -16 -4 -30 -10 -30 -5 0
-10 -9 -10 -20 0 -11 -4 -20 -10 -20 -5 0 -10 -18 -10 -40 l0 -40 320 0 c313
0 320 0 320 20 0 11 5 20 10 20 6 0 10 33 10 80 0 47 4 80 10 80 6 0 10 18 10
40 0 22 5 40 10 40 6 0 10 14 10 30 0 17 5 30 10 30 6 0 10 14 10 30 0 17 5
30 10 30 6 0 10 14 10 30 0 17 5 30 10 30 6 0 10 9 10 20 0 11 5 20 10 20 6 0
10 9 10 20 0 11 5 20 10 20 6 0 10 9 10 20 0 11 5 20 10 20 6 0 10 9 10 20 0
11 5 20 10 20 6 0 10 9 10 20 0 11 5 20 10 20 6 0 10 6 10 13 0 7 9 23 20 35
11 12 20 26 20 33 0 6 14 24 30 39 17 15 30 33 30 39 0 16 187 201 203 201 7
0 19 9 27 20 8 11 21 20 28 20 8 0 27 14 42 30 15 17 35 30 44 30 9 0 16 5 16
10 0 6 9 10 20 10 11 0 20 5 20 10 0 6 9 10 20 10 11 0 20 5 20 10 0 6 9 10
20 10 11 0 20 5 20 10 0 6 9 10 20 10 11 0 20 5 20 10 0 6 14 10 30 10 17 0
30 5 30 10 0 6 14 10 30 10 17 0 30 5 30 10 0 6 9 10 20 10 11 0 20 5 20 10 0
6 18 10 40 10 22 0 40 5 40 10 0 6 23 10 50 10 28 0 50 5 50 10 0 6 27 10 60
10 33 0 60 4 60 10 0 6 93 10 260 10 167 0 260 -4 260 -10 0 -6 30 -10 70 -10
40 0 70 -4 70 -10 0 -5 23 -10 50 -10 28 0 50 -4 50 -10 0 -5 14 -10 30 -10
17 0 30 -4 30 -10 0 -5 14 -10 30 -10 17 0 30 -4 30 -10 0 -5 14 -10 30 -10
17 0 30 -4 30 -10 0 -5 14 -10 30 -10 17 0 30 -4 30 -10 0 -5 9 -10 20 -10 11
0 20 -4 20 -10 0 -5 8 -10 18 -10 10 0 24 -9 32 -20 8 -11 20 -20 27 -20 17 0
203 -186 203 -203 0 -7 9 -19 20 -27 11 -8 20 -21 20 -30 0 -9 9 -22 20 -30
11 -8 20 -22 20 -32 0 -10 5 -18 10 -18 6 0 10 -9 10 -20 0 -11 5 -20 10 -20
6 0 10 -9 10 -20 0 -11 5 -20 10 -20 6 0 10 -13 10 -30 0 -16 5 -30 10 -30 6
0 10 -13 10 -30 0 -16 5 -30 10 -30 6 0 10 -9 10 -20 0 -11 5 -20 10 -20 6 0
10 -13 10 -30 0 -16 5 -30 10 -30 6 0 10 -9 10 -20 0 -17 7 -20 43 -20 24 0
47 4 53 9 5 5 20 11 34 13 l25 3 1 160 c1 88 -2 165 -6 170 -5 6 -9 55 -11
110 -2 55 -7 105 -11 111 -4 6 -9 70 -10 143 0 72 -5 131 -9 131 -5 0 -9 22
-9 50 0 46 -2 50 -27 55 -16 3 -44 10 -63 15 -39 10 -39 10 -282 50 -126 21
-342 48 -478 61 -147 13 -651 19 -735 7z"/>
<path d="M5175 7130 c-3 -5 -17 -10 -31 -10 -13 0 -24 -4 -24 -10 0 -5 -13
-10 -30 -10 -16 0 -30 -3 -30 -8 0 -4 -14 -13 -32 -21 -45 -20 -111 -89 -126
-133 -10 -28 -10 -47 -2 -77 10 -39 59 -101 79 -101 6 0 11 -4 11 -10 0 -5 8
-10 18 -10 10 0 24 -9 32 -20 10 -14 26 -20 52 -20 21 0 38 -4 38 -10 0 -5 22
-10 49 -10 28 0 53 -4 56 -10 3 -5 35 -10 71 -10 36 0 64 4 64 10 0 6 30 10
70 10 40 0 70 4 70 10 0 6 29 10 68 10 56 0 70 -3 82 -20 24 -33 30 -23 30 46
0 65 13 94 40 94 7 0 25 14 40 30 15 17 33 30 40 30 12 0 40 24 40 34 0 3
-120 6 -266 6 -239 0 -266 -2 -260 -16 3 -9 6 -18 6 -20 0 -2 9 -4 20 -4 11 0
20 -4 20 -10 0 -5 8 -10 18 -10 10 0 24 -9 32 -20 8 -11 22 -20 32 -20 11 0
18 -7 18 -20 0 -11 -7 -20 -15 -20 -8 0 -15 -4 -15 -10 0 -6 -40 -10 -100 -10
l-101 0 -34 35 c-33 33 -35 38 -35 105 0 67 2 72 35 105 19 19 41 35 50 35 8
0 15 5 15 10 0 6 33 10 80 10 47 0 80 -4 80 -10 0 -5 18 -10 40 -10 22 0 40
-4 40 -10 0 -5 13 -10 28 -10 16 0 34 -8 42 -20 8 -11 21 -20 30 -20 9 0 22
-9 30 -20 8 -11 22 -20 32 -20 16 0 18 10 18 91 l0 91 -27 -7 c-59 -14 -105
-17 -116 -6 -6 6 -26 11 -44 11 -18 0 -33 5 -33 10 0 6 -55 10 -144 10 -86 0
-147 -4 -151 -10z"/>
<path d="M5876 7133 c-7 -8 20 -33 36 -33 8 0 20 -9 28 -20 8 -11 21 -20 29
-20 7 0 22 -9 31 -20 14 -16 18 -41 19 -128 2 -93 -1 -111 -17 -130 -11 -12
-27 -22 -36 -22 -10 0 -14 -4 -11 -10 3 -5 -3 -10 -14 -10 -12 0 -21 -4 -21
-10 0 -5 -5 -10 -11 -10 -11 0 -39 -24 -39 -34 0 -3 192 -6 426 -6 355 0 428
2 440 14 10 11 14 41 14 110 0 109 -10 120 -60 66 -15 -16 -34 -30 -42 -30 -7
0 -20 -9 -28 -20 -8 -11 -22 -20 -32 -20 -10 0 -18 -4 -18 -10 0 -6 -60 -10
-160 -10 l-160 0 0 36 c0 52 18 64 94 64 37 0 66 -4 66 -10 0 -5 14 -10 30
-10 17 0 30 -4 30 -10 0 -5 9 -10 20 -10 11 0 20 -4 20 -10 0 -5 9 -10 20 -10
19 0 20 7 20 90 0 90 0 90 -25 90 -15 0 -39 -7 -54 -15 -16 -8 -31 -11 -35 -8
-3 4 -6 1 -6 -5 0 -8 -28 -12 -90 -12 l-90 0 0 50 0 50 160 0 c100 0 160 -4
160 -10 0 -5 7 -10 15 -10 8 0 29 -13 47 -30 17 -16 36 -30 42 -30 6 0 18 -9
26 -20 8 -11 18 -20 22 -20 4 0 8 45 8 100 l0 101 -424 -2 c-234 0 -427 -3
-430 -6z"/>
<path d="M6816 7133 c-7 -8 41 -53 56 -53 8 0 20 -9 28 -20 8 -11 22 -20 32
-20 16 0 18 -12 18 -120 0 -78 -4 -120 -11 -120 -5 0 -7 -4 -4 -10 3 -5 0 -10
-7 -10 -8 0 -20 -9 -28 -20 -8 -11 -20 -20 -28 -20 -12 0 -62 -43 -62 -55 0
-3 95 -5 210 -5 116 0 210 2 210 5 0 13 -50 55 -65 55 -8 0 -15 5 -15 10 0 6
-7 10 -16 10 -31 0 -44 27 -44 94 0 36 3 66 6 66 3 0 23 -18 44 -40 21 -22 44
-40 50 -40 6 0 42 -31 80 -70 38 -38 76 -70 85 -70 8 0 15 -4 15 -10 0 -6 43
-10 110 -10 l110 0 0 165 c0 163 0 166 25 190 13 14 30 25 37 25 8 0 20 9 28
20 8 11 22 20 32 20 10 0 18 5 18 10 0 6 9 10 20 10 11 0 20 -4 20 -10 0 -5 8
-10 18 -10 10 0 24 -9 32 -20 8 -11 20 -20 28 -20 7 0 24 -11 37 -25 23 -22
25 -31 25 -125 0 -94 -2 -103 -25 -125 -13 -14 -30 -25 -37 -25 -8 0 -20 -9
-28 -20 -8 -11 -20 -20 -28 -20 -13 0 -42 -23 -42 -34 0 -3 167 -6 370 -6 240
0 370 4 370 10 0 6 23 10 51 10 31 0 48 4 44 10 -4 6 5 10 20 10 14 0 24 4 21
9 -3 5 1 11 9 15 10 3 15 19 15 46 0 48 -34 90 -75 90 -14 0 -25 5 -25 10 0 6
-13 10 -30 10 -16 0 -30 5 -30 10 0 6 9 10 20 10 11 0 20 5 20 10 0 6 9 10 20
10 11 0 20 4 20 9 0 5 9 11 20 14 11 3 20 12 20 21 0 9 5 16 10 16 6 0 10 9
10 20 0 11 -4 20 -9 20 -5 0 -13 9 -16 20 -3 11 -13 20 -21 20 -8 0 -14 5 -14
10 0 6 -9 10 -20 10 -11 0 -20 5 -20 10 0 6 -22 10 -49 10 -28 0 -53 5 -56 10
-6 11 -1059 13 -1098 3 -15 -4 -15 -6 -3 -19 8 -8 21 -14 28 -14 8 0 20 -9 28
-20 8 -11 20 -20 28 -20 7 0 24 -11 37 -25 21 -20 25 -34 25 -80 0 -30 -4 -55
-10 -55 -5 0 -10 5 -10 10 0 6 -7 10 -15 10 -9 0 -47 32 -85 70 -38 39 -74 70
-80 70 -6 0 -9 3 -7 8 6 8 -13 26 -32 30 -7 1 -21 11 -32 21 -18 17 -39 19
-199 19 -98 0 -181 -2 -184 -5z m1514 -83 c0 -5 14 -10 30 -10 26 0 30 -4 30
-26 0 -47 -19 -54 -140 -54 -72 0 -109 4 -105 10 3 6 1 10 -4 10 -15 0 -14 48
2 65 14 17 187 22 187 5z m66 -204 c28 -28 5 -66 -40 -66 -14 0 -26 -4 -26
-10 0 -6 -35 -10 -86 -10 -98 0 -114 9 -114 64 l0 36 126 0 c95 0 129 -3 140
-14z"/>
<path d="M8850 7133 c0 -2 18 -22 40 -43 38 -36 52 -70 30 -70 -5 0 -10 -7
-10 -16 0 -9 -13 -29 -30 -44 -16 -15 -30 -34 -30 -42 0 -7 -9 -20 -20 -28
-11 -8 -20 -20 -20 -27 0 -15 -103 -122 -122 -125 -13 -3 -58 -43 -58 -53 0
-3 218 -5 485 -5 317 0 485 3 485 10 0 6 -6 10 -13 10 -7 0 -19 9 -27 20 -8
11 -22 20 -32 20 -10 0 -18 5 -18 10 0 6 -7 10 -16 10 -16 0 -74 55 -74 70 0
4 -13 22 -30 40 -16 18 -30 35 -30 40 0 4 -8 16 -17 28 -10 11 -25 30 -33 42
-8 12 -21 28 -27 36 -7 7 -13 18 -13 24 0 14 40 54 63 63 10 4 17 13 14 20 -3
9 -63 12 -250 13 -136 1 -247 0 -247 -3z m226 -167 c8 -8 14 -21 14 -28 0 -8
9 -20 20 -28 33 -24 23 -30 -50 -30 -63 0 -70 2 -70 20 0 11 5 20 10 20 6 0
10 7 10 15 0 20 21 44 38 45 7 0 20 -6 28 -14z m114 -186 c0 -13 -7 -20 -20
-20 -11 0 -20 -4 -20 -10 0 -5 -8 -10 -18 -10 -10 0 -24 -9 -32 -20 -10 -14
-26 -20 -50 -20 -24 0 -40 6 -50 20 -8 11 -21 20 -29 20 -14 0 -51 37 -51 52
0 4 61 8 135 8 128 0 135 -1 135 -20z"/>
<path d="M4982 6524 c-8 -9 -11 -25 -8 -40 6 -24 7 -24 140 -24 l134 0 10 -27
c22 -55 62 -183 60 -191 -1 -4 19 -49 45 -99 26 -51 47 -99 47 -108 0 -8 5
-15 10 -15 6 0 10 -9 10 -20 0 -11 5 -20 10 -20 6 0 10 -6 10 -12 0 -7 11 -26
25 -42 13 -16 27 -37 30 -47 4 -11 10 -19 15 -19 5 0 11 -8 15 -19 3 -10 13
-28 23 -39 9 -11 24 -30 32 -43 8 -12 39 -46 68 -75 28 -30 52 -56 52 -59 0
-9 34 -45 42 -45 5 0 33 -25 63 -55 31 -30 60 -55 65 -55 5 0 25 -16 44 -35
20 -19 41 -35 48 -35 8 0 20 -9 28 -20 8 -11 21 -20 30 -20 9 0 22 -9 30 -20
8 -11 22 -20 32 -20 10 0 18 -4 18 -10 0 -5 9 -10 20 -10 11 0 20 -4 20 -10 0
-5 9 -10 20 -10 11 0 20 -4 20 -10 0 -5 9 -10 20 -10 11 0 20 -4 20 -10 0 -5
9 -10 20 -10 11 0 20 -4 20 -10 0 -5 9 -10 20 -10 11 0 20 -4 20 -10 0 -5 9
-10 20 -10 11 0 20 -4 20 -10 0 -5 14 -10 30 -10 17 0 30 -4 30 -10 0 -5 9
-10 20 -10 11 0 20 -4 20 -10 0 -5 14 -10 30 -10 17 0 30 -4 30 -10 0 -5 14
-10 30 -10 17 0 30 -4 30 -9 0 -5 16 -12 35 -15 19 -3 51 -9 70 -12 19 -3 35
-10 35 -14 0 -4 19 -10 43 -13 23 -3 67 -11 97 -17 374 -75 837 -75 1278 -1
34 6 90 16 125 21 124 21 165 29 332 65 94 20 196 41 228 48 l58 12 -2 83 c-2
46 -7 86 -11 88 -12 8 -10 844 2 844 6 0 10 9 10 20 0 11 3 20 8 20 4 0 16 14
27 30 11 16 26 30 33 30 6 0 12 5 12 10 0 6 14 10 30 10 17 0 30 5 30 10 0 6
18 10 40 10 22 0 40 5 40 10 0 6 31 10 74 10 81 0 86 4 86 66 l0 34 110 0 110
0 0 40 0 40 -2237 0 c-1990 -1 -2239 -2 -2251 -16z m2668 -104 c0 -33 3 -40
20 -40 11 0 20 -4 20 -10 0 -6 47 -10 120 -10 73 0 120 -4 120 -10 0 -6 27
-10 60 -10 33 0 60 -4 60 -10 0 -5 18 -10 40 -10 22 0 40 -4 40 -10 0 -5 7
-10 15 -10 26 0 125 -107 125 -135 0 -14 5 -25 10 -25 6 0 10 -30 10 -70 0
-40 4 -70 10 -70 6 0 10 -77 10 -210 0 -133 -4 -210 -10 -210 -5 0 -10 -22
-10 -50 0 -27 -4 -50 -10 -50 -5 0 -10 -11 -10 -25 0 -27 -78 -115 -103 -115
-7 0 -19 -9 -27 -20 -8 -12 -26 -20 -42 -20 -15 0 -28 -4 -28 -10 0 -5 -9 -10
-20 -10 -11 0 -20 -4 -20 -10 0 -5 -13 -10 -30 -10 -16 0 -30 -4 -30 -10 0 -5
-18 -10 -40 -10 -22 0 -40 -4 -40 -10 0 -6 -27 -10 -60 -10 -33 0 -60 -4 -60
-10 0 -6 -87 -10 -240 -10 -153 0 -240 4 -240 10 0 6 -27 10 -60 10 -33 0 -60
4 -60 10 0 6 -22 10 -50 10 -27 0 -50 5 -50 10 0 6 -18 10 -40 10 -22 0 -40 5
-40 10 0 6 -13 10 -30 10 -16 0 -30 5 -30 10 0 6 -13 10 -30 10 -16 0 -30 5
-30 10 0 6 -9 10 -20 10 -11 0 -20 5 -20 10 0 6 -13 10 -30 10 -16 0 -30 5
-30 10 0 6 -9 10 -20 10 -11 0 -20 5 -20 10 0 6 -8 10 -18 10 -10 0 -24 9 -32
20 -8 11 -22 20 -32 20 -10 0 -18 5 -18 10 0 6 -8 10 -18 10 -10 0 -24 9 -32
20 -8 11 -21 20 -28 20 -7 0 -31 18 -52 40 -21 22 -43 40 -49 40 -6 0 -49 38
-96 85 -47 47 -85 90 -85 96 0 6 -18 28 -40 49 -22 21 -40 45 -40 52 0 7 -9
20 -20 28 -11 8 -20 21 -20 30 0 9 -9 22 -20 30 -11 8 -20 22 -20 32 0 10 -4
18 -10 18 -5 0 -10 9 -10 20 0 11 -4 20 -10 20 -5 0 -10 9 -10 20 0 11 -4 20
-10 20 -5 0 -10 9 -10 20 0 11 -4 20 -10 20 -5 0 -10 9 -10 20 0 11 -4 20 -10
20 -5 0 -10 14 -10 30 0 17 -4 30 -10 30 -5 0 -10 9 -10 20 0 11 -4 20 -10 20
-5 0 -10 14 -10 30 0 17 -4 30 -10 30 -5 0 -10 14 -10 30 0 17 -4 30 -10 30
-5 0 -10 23 -10 50 l0 50 860 0 860 0 0 -40z"/>
<path d="M10055 1423 c-21 -17 -85 -94 -85 -103 0 -6 15 -10 34 -10 25 0 48
11 90 46 31 26 55 52 53 58 -4 13 -77 20 -92 9z"/>
<path d="M4310 1272 c-74 -20 -142 -85 -161 -154 -37 -130 3 -266 94 -322 61
-38 173 -47 259 -22 66 19 68 23 68 157 0 129 -1 131 -120 127 l-95 -3 -3 -37
-3 -38 55 0 56 0 0 -60 c0 -56 -2 -60 -26 -66 -35 -9 -100 1 -129 20 -40 26
-59 74 -60 146 0 83 23 126 85 158 53 27 109 25 180 -7 44 -20 45 -20 54 -1
13 28 -1 68 -30 87 -28 18 -176 28 -224 15z"/>
<path d="M5393 1273 c-10 -3 -13 -48 -13 -176 l0 -172 -81 155 c-45 85 -89
163 -97 173 -13 14 -28 17 -76 15 l-61 -3 -3 -246 c-2 -236 -2 -247 17 -252
10 -2 31 -2 45 0 l26 5 0 182 1 181 61 -115 c34 -63 78 -144 98 -180 l36 -65
59 0 60 0 3 246 2 247 -22 6 c-26 7 -38 7 -55 -1z"/>
<path d="M6154 1272 c-7 -4 -38 -81 -69 -172 -31 -91 -68 -196 -81 -233 -13
-38 -24 -74 -24 -81 0 -17 35 -27 70 -20 22 5 30 15 44 60 l17 55 96 -3 96 -3
17 -49 c11 -34 23 -52 40 -58 34 -13 80 0 80 21 0 29 -159 474 -173 483 -15
10 -98 10 -113 0z m88 -205 c15 -45 28 -88 28 -94 0 -9 -20 -13 -65 -13 -36 0
-65 3 -65 7 0 20 63 194 68 188 3 -3 18 -43 34 -88z"/>
<path d="M6757 1267 c-16 -11 -17 -35 -15 -252 l3 -239 25 -6 c14 -3 37 -4 52
-2 l28 4 0 248 0 248 -22 6 c-35 9 -52 7 -71 -7z"/>
<path d="M7298 1273 c-16 -4 -18 -21 -18 -174 l0 -169 -78 150 c-102 196 -97
192 -175 188 l-62 -3 -3 -246 -2 -247 27 -4 c65 -9 63 -15 63 190 l0 187 91
-170 c49 -93 97 -177 106 -187 22 -24 118 -26 127 -2 3 9 6 120 6 249 l0 233
-22 6 c-25 6 -34 6 -60 -1z"/>
<path d="M7631 1273 c-81 -17 -153 -101 -170 -197 -26 -146 40 -272 160 -306
90 -26 251 0 263 43 11 42 7 212 -7 230 -10 15 -27 17 -107 15 l-95 -3 -3 -37
-3 -38 55 0 56 0 0 -60 c0 -56 -2 -60 -26 -66 -35 -9 -100 1 -129 20 -35 23
-56 70 -62 135 -4 45 0 65 19 101 45 87 140 110 248 61 l45 -20 9 20 c14 30
-5 72 -39 88 -30 15 -169 24 -214 14z"/>
<path d="M8728 1273 c-16 -4 -18 -23 -20 -176 l-3 -172 -69 135 c-38 74 -80
152 -93 173 -23 36 -24 37 -87 37 -49 0 -65 -4 -70 -16 -3 -9 -6 -119 -6 -245
l0 -229 23 -9 c13 -5 35 -7 50 -4 l27 5 0 182 0 181 89 -167 c48 -92 94 -174
101 -183 10 -12 28 -15 69 -13 l56 3 3 246 2 247 -22 6 c-13 3 -25 5 -28 5 -3
-1 -13 -3 -22 -6z"/>
<path d="M8928 1273 c-17 -4 -18 -25 -18 -254 0 -274 -5 -254 60 -251 51 3 50
-4 50 251 0 227 -1 241 -19 251 -20 10 -42 11 -73 3z"/>
<path d="M9983 1273 c-10 -3 -13 -64 -13 -253 l0 -248 25 -4 c14 -3 36 -3 50
0 l25 4 0 248 c0 217 -2 249 -16 254 -18 7 -53 7 -71 -1z"/>
<path d="M10307 1268 c-20 -15 -186 -483 -175 -493 2 -2 15 -6 30 -9 50 -9 67
3 85 60 l17 54 96 0 97 0 14 -52 c12 -45 18 -53 46 -60 18 -5 42 -4 56 1 25
10 25 11 12 53 -13 44 -137 400 -150 430 -11 28 -97 39 -128 16z m87 -203 c14
-44 26 -85 26 -92 0 -9 -19 -13 -66 -13 -75 0 -72 -14 -26 123 14 43 29 74 33
70 4 -5 19 -44 33 -88z"/>
<path d="M4666 1254 c-3 -9 -6 -114 -6 -234 0 -120 3 -225 6 -234 5 -14 28
-16 150 -16 l144 0 0 40 0 40 -95 0 -95 0 0 70 0 70 79 0 c75 0 79 1 85 24 12
48 0 56 -85 56 l-79 0 0 60 0 59 93 3 92 3 3 38 3 37 -144 0 c-123 0 -146 -2
-151 -16z"/>
<path d="M5586 1254 c-9 -24 -7 -457 3 -473 7 -10 36 -12 132 -10 110 4 128 7
163 28 87 54 86 199 -2 232 -24 9 -25 12 -9 20 41 23 59 102 35 154 -22 49
-73 65 -202 65 -95 0 -115 -3 -120 -16z m189 -64 c33 -12 49 -53 34 -83 -17
-31 -28 -37 -76 -37 l-43 0 0 65 0 65 29 0 c16 0 41 -4 56 -10z m39 -221 c32
-25 35 -70 6 -99 -15 -15 -33 -20 -75 -20 l-55 0 0 70 0 70 49 0 c34 0 56 -6
75 -21z"/>
<path d="M7994 1257 c-2 -7 -3 -118 -2 -247 l3 -235 148 -3 147 -3 0 41 0 40
-95 0 -95 0 0 70 0 69 78 3 77 3 3 38 3 37 -80 0 -81 0 0 60 0 59 93 3 92 3 3
38 3 37 -146 0 c-108 0 -147 -3 -151 -13z"/>
<path d="M9122 1023 l3 -248 148 -3 148 -3 -3 38 -3 38 -97 3 -98 3 0 69 0 69
83 3 82 3 0 35 0 35 -80 5 -80 5 -3 57 -3 57 98 3 98 3 0 35 0 35 -148 3 -147
3 2 -248z"/>
<path d="M9517 1263 c-4 -3 -7 -115 -7 -248 l0 -242 30 -7 c17 -3 41 -1 55 4
24 9 25 12 25 105 l0 95 30 0 c39 0 60 -24 98 -119 25 -60 38 -80 55 -85 22
-5 77 1 86 9 8 9 -71 181 -95 207 -26 26 -26 26 -5 33 12 3 33 22 47 41 23 30
26 41 22 89 -8 100 -53 125 -221 125 -63 0 -117 -3 -120 -7z m215 -90 c10 -9
18 -30 18 -48 0 -42 -25 -63 -83 -71 l-47 -7 0 78 0 78 47 -7 c25 -3 55 -14
65 -23z"/>
<path d="M6470 989 c-9 -16 -9 -28 -1 -46 10 -23 14 -24 98 -21 l88 3 0 40 0
40 -87 3 c-80 3 -88 1 -98 -19z"/>
</g>
</svg>
